/* XPM */
static char * mini_keyboard_xpm[] = {
/* width height ncolors cpp [x_hot y_hot] */
"16 16 5 1 0 0",
/* colors */
" 	s None	m None	c None",
".	c #0000FF",
"X	s iconColor2	m blue	c white",
"o	s iconColor1	m blue	c black",
"O	c #0000FF",
/* pixels */
"                ",
" .............. ",
".XXXXXXXXXXXXX.o",
".X.............o",
".XXOoXOoXOoXOo.o",
".XO.oO.oO.oO.o.o",
".XOooooooooooo.o",
".XOoXOoXOoXXOo.o",
".XOoO.oO.oOO.o.o",
".XOooooooooooo.o",
".X.XOoXXXOoXOo.o",
".X.O.oOOO.oO.o.o",
".X.ooooooooooo.o",
"...............o",
" oooooooooooooo ",
"                "};

/* original:
" ............... ",
".XXXXXXXXXXXXXX.o",
".X..............o",
".X.XOoXOoXOoXOo.o",
".X.O.oO.oO.oO.o.o",
".XOoooooooooooo.o",
".XOoXOoXOoXXXOo.o",
".XOoO.oOOoOOO.o.o",
".XOoooooooooooo.o",
".X.XOoXXXXOoXOo.o",
".X.O.oOOOO.oO.o.o",
".X.oooooooooooo.o",
"................o",
" ooooooooooooooo ",
"                 ",
"                 "};
*/
